<svg width="660" height="660" viewBox="0 0 660 660" fill="none" xmlns="http://www.w3.org/2000/svg">
<g clip-path="url(#clip0_120_24)">
<rect width="660" height="660" rx="15" fill="url(#paint0_linear_120_24)"/>
<g clip-path="url(#clip1_120_24)">
<path fill-rule="evenodd" clip-rule="evenodd" d="M264.529 200.978L304.607 213.474L295.023 236.412L317.612 226.693L329.917 267.367L342.227 226.693L364.816 236.412L355.248 213.474L395.304 200.978L355.248 188.487L364.816 165.55L342.227 175.27L329.917 134.595L317.612 175.27L295.023 165.55L304.598 188.487L264.529 200.978Z" fill="#1A172F"/>
<mask id="mask0_120_24" style="mask-type:luminance" maskUnits="userSpaceOnUse" x="-204" y="-21" width="1045" height="702">
<path d="M-204 -21H841V681H-204V-21Z" fill="white"/>
</mask>
<g mask="url(#mask0_120_24)">
<path fill-rule="evenodd" clip-rule="evenodd" d="M462.883 329.39V229.729L561.032 329.39H462.883ZM462.883 437.599V337.948H561.032L462.883 437.599ZM454.452 329.39H356.294L454.452 229.729V329.39ZM454.452 437.599L356.294 337.948H454.452V437.599ZM334.135 460.126V360.444L432.308 460.126H334.135ZM334.135 568.312V468.645H432.308L334.135 568.312ZM325.711 460.126H227.531L325.711 360.444V460.126ZM325.711 568.312L227.531 468.645H325.711V568.312ZM205.381 437.63V337.948H303.543L205.381 437.63ZM196.978 329.39H98.8075L196.978 229.715V329.39ZM196.978 437.63L98.8075 337.948H196.978V437.63ZM303.543 329.39H205.381V229.715L303.543 329.39ZM576.681 332.739L576.705 332.76C576.705 332.76 575.891 302.466 553.257 259.826C537.364 229.897 519.366 209.436 519.366 209.436L416.265 104.552L412.731 108.16L412.596 108.022L409.62 111.037L380.805 140.374L377.83 143.404L381.771 147.396L422.873 189.132C422.331 188.708 421.931 188.435 421.931 188.435L423.001 189.262L427.288 193.62C428.916 195.785 430.31 198.495 430.379 201.606C430.49 207.082 428.698 210.515 427.107 212.519L425.157 214.5C424.922 214.675 424.757 214.78 424.757 214.78L424.975 214.682L329.923 311.176L232.143 211.918C230.689 209.845 229.242 206.536 229.341 201.606C229.401 198.753 230.575 196.218 232.023 194.145L237.207 188.883L237.788 188.435C237.788 188.435 237.598 188.564 237.327 188.76L278.062 147.396L281.037 144.375L278.062 141.347L274.104 137.322L243.213 105.736L140.105 210.62C140.105 210.62 122.106 231.081 106.212 261.012C85.221 300.546 83.0062 329.429 82.795 333.421L82.6753 333.673L82.7733 333.772V333.946L82.8545 333.854L85.6586 336.695L198.2 450.962L201.175 453.999L201.183 453.984L211.414 464.377L211.408 464.393L214.392 467.413L326.939 581.667L329.923 584.696L332.901 581.667L445.456 467.413L448.425 464.393L448.416 464.377L458.664 453.976H458.671L461.648 450.954L574.195 336.695L577.164 333.673L576.681 332.739Z" fill="#1A172F"/>
</g>
</g>
</g>
<defs>
<linearGradient id="paint0_linear_120_24" x1="660" y1="-1.96695e-05" x2="-8.03173e-05" y2="679.5" gradientUnits="userSpaceOnUse">
<stop stop-color="#F8EDFF"/>
<stop offset="1" stop-color="#7984AA"/>
</linearGradient>
<clipPath id="clip0_120_24">
<rect width="660" height="660" fill="white"/>
</clipPath>
<clipPath id="clip1_120_24">
<rect width="1511" height="1280" fill="white" transform="translate(-48 -310)"/>
</clipPath>
</defs>
</svg>
