<?xml version="1.0" standalone="no"?>
<!DOCTYPE svg PUBLIC "-//W3C//DTD SVG 20010904//EN"
 "http://www.w3.org/TR/2001/REC-SVG-20010904/DTD/svg10.dtd">
<svg version="1.0" xmlns="http://www.w3.org/2000/svg"
 width="700.000000pt" height="700.000000pt" viewBox="0 0 700.000000 700.000000"
 preserveAspectRatio="xMidYMid meet">
<metadata>
Created by potrace 1.14, written by Peter Selinger 2001-2017
</metadata>
<g transform="translate(0.000000,700.000000) scale(0.100000,-0.100000)"
fill="#000000" stroke="none">
<path d="M3301 5399 c-289 -31 -600 -141 -841 -299 -121 -79 -173 -122 -288
-234 -169 -164 -290 -330 -388 -531 -255 -527 -255 -1143 0 -1670 102 -208
222 -371 403 -545 508 -490 1241 -653 1918 -429 520 172 956 580 1160 1086
103 255 138 437 138 723 0 286 -35 468 -138 723 -113 281 -321 561 -560 757
-387 316 -904 471 -1404 419z"/>
</g>
</svg>
